<svg width="1518" height="639" viewBox="0 0 1518 639" fill="none" xmlns="http://www.w3.org/2000/svg">
<path d="M586.667 2.53335C580.4 3.86669 566.4 7.46669 555.333 10.5334C532.533 16.9334 498.8 26.4 349.467 67.8667C291.2 84.1333 243.2 97.7334 242.8 98C241.867 99.0667 247.733 98.6667 266.667 96.5334C277.733 95.2 302.533 94.2667 331.333 93.7334C381.733 92.9334 417.467 94.8 459.6 100.133L481.067 102.8L505.6 93.3334C591.6 59.7334 607.467 54.6667 626 54.2667C655.6 53.8667 669.467 74.5334 675.333 128C676.533 138.667 678.133 148.667 678.933 150.133C680.933 154.267 686.133 156.667 692.4 156.533C696.667 156.4 698.667 155.467 701.6 152.133C706.133 147.067 706.267 142.8 703.2 119.333C698.8 85.0667 692.4 60.6667 682.667 40.5333C672.533 19.6 659.333 7.73335 640.133 2.40002C628.4 -0.79998 602.4 -0.79998 586.667 2.53335Z" fill="white"/>
<path d="M876.667 2.53323C866.667 5.46657 862 7.86657 854.667 13.9999C834.133 31.1999 822.133 61.3332 814.8 115.333C811.067 142 811.2 146.8 815.333 151.733C821.333 158.933 834.533 158.133 838.4 150.267C839.2 148.667 840.8 138.8 842 128.267C847.867 74.7999 861.6 53.9999 890.667 54.2666C908.8 54.3999 927.467 60.2666 999.867 88.6666C1032.93 101.733 1036.93 102.933 1042.53 102.267C1045.87 101.733 1055.33 100.533 1063.33 99.4666C1071.47 98.3999 1092.4 96.3999 1110 95.1999C1148.27 92.5332 1219.87 93.1999 1250 96.5332C1288.4 100.8 1299.47 104.267 1110.67 51.9999C1092.67 47.0666 1051.07 35.4666 1018 26.2666C940 4.53323 938.533 4.13323 926 1.86657C911.2 -0.666768 886.8 -0.400102 876.667 2.53323Z" fill="white"/>
<path d="M291.333 113.467C233.467 116.8 184.533 126.4 131.333 144.8C82 161.867 89.6 160.4 48 161.067C7.99997 161.6 5.7333 162 1.99997 169.333C0.39997 172.4 -3.05176e-05 179.067 -3.05176e-05 203.867C-3.05176e-05 234.4 -3.05176e-05 234.533 3.19997 238.4C5.06664 240.533 12 245.2 18.8 248.8C33.0666 256.267 44 265.733 47.8666 273.733C49.4666 277.067 51.7333 287.067 53.3333 298C71.7333 424.4 107.2 512.8 161.2 566.667C199.2 604.533 238.4 623.733 299.467 634C334.4 640 409.2 639.867 455.467 633.867C545.2 622.267 600.933 583.2 640.667 504C659.067 467.333 671.067 431.2 684.667 371.067C687.867 357.067 692.133 341.467 694.133 336.4C698.667 325.2 708 309.733 713.733 304.267C720.133 298 732.933 290.933 742.933 287.867C771.733 279.067 802.667 295.467 819.467 328.667C827.2 344.133 828.133 346.667 832.667 370C844.8 431.067 866.267 490.133 890.667 529.467C906.133 554.4 927.2 577.6 947.733 592.4C971.2 609.333 1004.27 623.467 1031.33 628.133C1035.33 628.8 1042.13 629.867 1046.4 630.667C1071.33 634.933 1107.33 637.467 1148 637.467C1193.87 637.6 1211.87 636.133 1239.87 629.867C1362.8 602.4 1433.73 498.8 1463.33 303.467C1465.2 290.8 1468 278.133 1469.47 274.8C1473.2 266.4 1482.67 258 1497.73 249.6C1504.8 245.733 1512 240.667 1513.87 238.533L1517.33 234.4V203.333V172.267L1513.87 168.133C1512 165.867 1508.27 163.467 1505.6 162.667C1502.93 162 1488.4 161.333 1473.33 161.333C1440.13 161.333 1431.73 160.133 1412 153.2C1337.07 126.667 1294.93 117.867 1222.67 113.333C1157.47 109.333 1060.53 114 999.333 124.133C990.533 125.6 980 127.333 976 128C972 128.667 964.533 130.133 959.333 131.333C954.267 132.4 945.467 134.267 940 135.467C911.333 141.467 861.067 157.867 819.867 174.667C796.4 184.267 785.333 186.8 764.533 187.6C738.667 188.667 721.6 184.8 686.667 170.267C670.533 163.6 622.8 147.867 599.333 141.467C540.267 125.467 479.467 116.667 403.333 113.333C369.733 111.867 318.533 111.867 291.333 113.467ZM449.333 153.467C502.533 156.533 533.467 164 564.133 180.8C577.467 188.133 601.867 205.067 610.933 213.2C624.133 225.067 634.533 243.2 639.467 262.667C642.933 276.667 643.067 321.733 639.6 344C630.267 403.067 621.2 438 606 472.667C588 514 563.733 544.933 534.667 564.267C499.333 587.733 446.4 597.6 362 596.667C308 596 278.4 590.667 246.8 575.867C196.267 552.267 152.933 497.333 128.533 426.267C115.6 388.267 105.867 338.133 103.2 295.333C100.667 252 121.467 214.533 161.6 190.667C207.067 163.6 238.8 154.8 301.333 152C329.067 150.667 418.267 151.6 449.333 153.467ZM1198 152C1255.6 153.6 1272.4 155.733 1300.67 164.933C1317.47 170.533 1351.73 187.333 1364.93 196.8C1383.6 209.867 1399.33 229.333 1407.33 249.067C1415.33 268.667 1416.13 287.867 1410.53 329.867C1397.87 425.2 1367.6 494.8 1317.87 542.667C1287.73 571.6 1254.53 587.067 1207.6 594.133C1179.2 598.4 1109.6 597.867 1070 593.2C1020 587.2 984 571.067 956.4 542.133C936.8 521.733 922.933 499.867 909.6 468.533C883.067 405.867 867.733 306.133 878 262.667C883.867 237.333 899.733 216.667 928 197.067C977.733 162.667 1009.6 154.4 1104 152.133C1125.6 151.6 1145.73 151.067 1148.67 150.933C1151.6 150.8 1173.87 151.333 1198 152Z" fill="white"/>
</svg>
