<?xml version="1.0" standalone="no"?>
<!DOCTYPE svg PUBLIC "-//W3C//DTD SVG 20010904//EN"
 "http://www.w3.org/TR/2001/REC-SVG-20010904/DTD/svg10.dtd">
<svg version="1.0" xmlns="http://www.w3.org/2000/svg"
 width="800.000000pt" height="800.000000pt" viewBox="0 0 800.000000 800.000000"
 preserveAspectRatio="xMidYMid meet">
<metadata>
Created by potrace 1.16, written by Peter Selinger 2001-2019
</metadata>
<g transform="translate(0.000000,800.000000) scale(0.100000,-0.100000)"
fill="#000000" stroke="none">
<path d="M4022 5853 c-20 -19 -652 -807 -673 -841 -11 -17 -7 -28 33 -83 167
-234 436 -387 728 -414 l76 -7 195 214 c107 117 309 339 449 493 139 154 295
325 346 380 178 194 185 205 139 250 l-24 25 -624 0 c-581 0 -626 -1 -645 -17z"/>
<path d="M2964 4957 c-224 -179 -494 -391 -506 -398 -16 -10 -11 -17 103 -155
150 -182 378 -461 416 -510 18 -23 29 -44 25 -48 -4 -4 -2 -6 4 -4 5 2 24 -13
40 -32 36 -41 547 -665 974 -1188 l75 -92 808 0 c700 0 808 2 813 15 9 23 -46
333 -71 404 -62 170 -215 310 -405 369 -47 14 -111 17 -440 18 -760 3 -755 3
-775 18 -25 18 -25 74 0 92 15 11 70 14 242 14 123 0 223 2 223 4 0 2 -12 48
-26 103 -14 54 -30 115 -35 136 l-10 37 -254 0 c-242 0 -256 1 -275 20 -11 11
-20 29 -20 40 0 11 9 29 20 40 19 19 33 20 254 20 129 0 237 3 239 8 2 4 -24
119 -58 256 -45 177 -68 253 -81 263 -10 8 -45 13 -84 13 -293 0 -552 104
-744 298 -86 87 -127 145 -186 263 -73 144 -81 144 -266 -4z"/>
<path d="M2255 4399 c-155 -121 -155 -123 -47 -251 43 -51 175 -208 293 -349
550 -657 739 -882 934 -1114 115 -138 265 -316 333 -397 67 -80 129 -149 138
-152 9 -3 445 -6 969 -6 l954 0 21 22 c18 19 20 35 20 135 l0 113 -904 0
c-497 0 -911 3 -919 6 -16 6 -58 54 -302 354 -88 107 -200 245 -250 305 -94
114 -324 394 -411 501 -202 248 -722 883 -733 896 -3 4 -47 -24 -96 -63z"/>
<path d="M2550 2780 c-29 -29 -26 -74 6 -99 26 -20 39 -21 306 -21 324 0 337
3 338 76 0 63 -4 64 -333 64 -284 0 -298 -1 -317 -20z"/>
<path d="M2150 2380 c-29 -29 -26 -74 6 -99 26 -21 36 -21 570 -21 331 0 553
4 569 10 28 11 49 53 40 81 -16 51 4 49 -601 49 -551 0 -564 0 -584 -20z"/>
</g>
</svg>
