<svg width="75" height="77" viewBox="0 0 75 77" fill="none" xmlns="http://www.w3.org/2000/svg">
<path d="M37.7725 0.348488C37.3733 0.737971 24.7558 16.8913 24.3365 17.5882C24.1169 17.9367 24.1968 18.1622 24.9954 19.2897C28.3294 24.0865 33.6998 27.2228 39.5294 27.7763L41.0467 27.9198L44.9397 23.533C47.0759 21.1346 51.1087 16.5838 53.9037 13.4269C56.6788 10.2701 59.7932 6.76471 60.8114 5.63726C64.3651 1.66043 64.5048 1.43494 63.5865 0.512481L63.1073 2.79397e-06H50.6496C39.0503 2.79397e-06 38.1519 0.0205019 37.7725 0.348488Z" fill="white"/>
<path d="M16.6503 18.7157C12.1782 22.385 6.78786 26.7308 6.54829 26.8743C6.22886 27.0793 6.32868 27.2228 8.60462 30.0517C11.5993 33.7825 16.1511 39.5018 16.9098 40.5062C17.2692 40.9777 17.4888 41.4082 17.4089 41.4902C17.329 41.5722 17.369 41.6132 17.4888 41.5722C17.5886 41.5312 17.9679 41.8387 18.2873 42.2282C19.0061 43.0686 29.2078 55.8601 37.7326 66.5811L39.2299 68.467H55.3612C69.3362 68.467 71.4924 68.426 71.5922 68.1596C71.7719 67.6881 70.6738 61.3333 70.1747 59.8779C68.9369 56.3931 65.8824 53.5232 62.0891 52.3137C61.1508 52.0268 59.8731 51.9653 53.3048 51.9448C38.1319 51.8833 38.2317 51.8833 37.8324 51.5758C37.3333 51.2068 37.3333 50.0588 37.8324 49.6899C38.1319 49.4644 39.2299 49.4029 42.6638 49.4029C45.1194 49.4029 47.1159 49.3619 47.1159 49.3209C47.1159 49.2799 46.8763 48.3369 46.5968 47.2095C46.3173 46.1025 45.9979 44.8521 45.898 44.4216L45.6984 43.6631H40.6275C35.7961 43.6631 35.5166 43.6426 35.1373 43.2531C34.9176 43.0276 34.738 42.6587 34.738 42.4332C34.738 42.2077 34.9176 41.8387 35.1373 41.6132C35.5166 41.2237 35.7961 41.2032 40.2082 41.2032C42.7836 41.2032 44.9398 41.1417 44.9797 41.0392C45.0196 40.9572 44.5005 38.5998 43.8218 35.7915C42.9234 32.1631 42.4642 30.6052 42.2046 30.4002C42.005 30.2362 41.3062 30.1337 40.5276 30.1337C34.6781 30.1337 29.5073 28.0018 25.6741 24.025C23.9572 22.2415 23.1387 21.0526 21.9608 18.6337C20.5034 15.6818 20.3437 15.6818 16.6503 18.7157Z" fill="white"/>
<path d="M2.49553 30.1542C-0.598943 32.6346 -0.598943 32.6756 1.55721 35.2995C2.41568 36.3449 5.05097 39.5633 7.40677 42.4537C18.3872 55.9216 22.1604 60.5339 26.0535 65.2897C28.3494 68.1186 31.344 71.7674 32.7016 73.4278C34.0392 75.0678 35.277 76.4822 35.4567 76.5437C35.6364 76.6052 44.3408 76.6667 54.8022 76.6667H73.8482L74.2674 76.2157C74.6268 75.8262 74.6667 75.4982 74.6667 73.4483V71.1319H56.6189C46.6966 71.1319 38.4314 71.0704 38.2717 71.0089C37.9522 70.8859 37.1137 69.902 32.2424 63.7522C30.4856 61.5588 28.2496 58.73 27.2513 57.5C25.3747 55.1631 20.7829 49.4234 19.046 47.23C15.0132 42.1462 4.63172 29.1292 4.41211 28.8627C4.35222 28.7808 3.47379 29.3547 2.49553 30.1542Z" fill="white"/>
<path d="M8.38502 63.3423C7.80606 63.9367 7.86595 64.8592 8.50481 65.3717C9.02388 65.7817 9.28342 65.8022 14.6139 65.8022C21.0824 65.8022 21.3419 65.7407 21.3619 64.2442C21.3619 62.9528 21.282 62.9323 14.7137 62.9323C9.04385 62.9323 8.76435 62.9528 8.38502 63.3423Z" fill="white"/>
<path d="M0.399274 71.5419C-0.179692 72.1364 -0.119799 73.0588 0.51906 73.5713C1.03813 74.0018 1.23778 74.0018 11.8987 74.0018C18.5069 74.0018 22.939 73.9198 23.2585 73.7968C23.8175 73.5713 24.2367 72.7104 24.057 72.1364C23.7376 71.0909 24.1369 71.1319 12.0585 71.1319C1.0581 71.1319 0.798561 71.1319 0.399274 71.5419Z" fill="white"/>
</svg>
