<svg width="925" height="1083" viewBox="0 0 925 1083" fill="none" xmlns="http://www.w3.org/2000/svg">
<path d="M448.667 4.73325C440.133 8.86659 431.333 17.3999 429.867 22.9999C428.4 28.8666 430.533 35.2666 435.333 39.3999C443.333 46.5999 449.733 46.0666 461.333 37.5333C466.533 33.6666 471.2 34.0666 475.067 38.5999C479.867 44.3333 475.6 54.3333 468.267 54.3333C462.8 54.3333 456.133 58.0666 453.333 62.5999C451.333 65.7999 450.667 69.2666 450.667 75.9333V84.8666L400.133 85.2666C351.733 85.6666 349.333 85.7999 345.733 88.3333C343.067 90.3333 337.067 101 325.2 124.333L308.4 157.533L293.2 159.933C233.867 168.733 191.467 184.867 171.733 205.933C161.333 217.133 158.8 223.933 146.133 275C111.6 413.933 32.6666 791.4 6.39996 943C-1.86671 990.867 -1.33337 1014.33 8.79996 1045.67C13.2 1059.4 20.2666 1074.47 23.4666 1077.13C29.0666 1081.8 34.2666 1082.33 81.2 1082.33C122.933 1082.33 127.867 1082.07 132.667 1079.8C136 1078.33 138.933 1075.67 140.4 1072.87C141.733 1070.33 148.667 1044.73 156 1015.8C167.333 970.6 169.2 963.933 170 968.467C170.533 971.267 172.133 978.2 173.733 983.667C176.133 992.333 176.533 998.733 177.2 1031.8L178 1069.93L181.733 1074.73C184 1077.8 187.2 1080.07 190.4 1081C197.867 1083 728 1082.87 734.933 1080.73C738.267 1079.8 741.6 1077.4 743.733 1074.47L747.333 1069.93L748 1031.8C748.667 1001.53 749.2 992.333 750.933 987C752.133 983.267 753.867 976.6 754.8 972.067L756.4 963.667L769.467 1015.93C776.667 1044.73 783.2 1069.8 784 1071.8C784.8 1073.67 787.467 1076.73 789.733 1078.47L794 1081.67H844.933C904.133 1081.67 900.133 1082.6 908.133 1066.6C924.8 1033.27 928.267 998.733 920.267 951C907.733 877 868.667 679.133 846.667 577.667C843.867 564.467 836.933 532.067 831.333 505.667C800.133 358.2 771.333 237.533 763.333 220.067C750.533 191.933 704.133 170.733 632.133 159.933L616.933 157.533L600.133 124.333C588.4 101.133 582.133 90.3333 579.6 88.3333C576 85.7999 573.733 85.6666 531.867 85.2666L488 84.8666L493.6 80.5999C506.533 70.5999 512.8 56.9999 511.733 41.1333C510.533 24.9999 498.933 9.13325 484.4 3.66659C473.2 -0.466748 458.933 -0.0667475 448.667 4.73325ZM487.6 131.933C498.8 136.467 508 140.6 508 141.133C508 143.8 470.8 155.667 462.533 155.667C457.333 155.667 435.067 149.4 425.333 145.267C419.333 142.733 419.333 142.6 422.667 141.133C433.733 136.067 463.6 123.933 465.333 123.8C466.4 123.667 476.4 127.4 487.6 131.933ZM379.867 162.333C393.733 171.667 415.333 181.533 433.067 186.467L444 189.667V207.267V225H440.8C434 225 405.733 216.867 393.467 211.4C376.533 203.667 363.467 195 351.467 183.267L341.467 173.667L349.067 158.067L356.533 142.6L364.4 149.8C368.667 153.8 375.6 159.4 379.867 162.333ZM574 183.267C561.867 195 548.8 203.667 531.867 211.4C519.333 217 491.333 225 484.133 225H480.667L481.067 207.267L481.467 189.533L492.4 186.467C503.067 183.4 525.733 174.467 531.2 171C545.733 162.067 554.4 155.8 560.8 149.933L568.4 142.867L576.133 158.333L583.867 173.667L574 183.267ZM323.6 207.267C352 235.4 389.733 253.8 434.4 261L444 262.6V618.467V974.333H326.133H208.133L206.8 967.267C203.6 951.667 202.533 935.533 201.733 893C200.267 807.667 208 688.467 226.133 514.067C231.867 459 232.133 455.667 230.133 451.4C223.867 438.733 205.333 437.8 198.4 449.667C196.933 452.333 195.333 460.2 194 472.333C187.6 532.333 185.467 552.2 184.667 562.333C184.267 568.467 183.6 573.933 183.467 574.333C183.2 574.733 182.533 580.733 182.133 587.667C181.6 594.6 180.933 602.467 180.667 605C180.4 607.533 179.733 613.533 179.333 618.333C178.933 623.133 178 633 177.333 640.333C174.933 664.467 169.467 745 167.467 783.667L165.467 821.667L158.667 850.333C150.667 884.467 143.6 913.667 135.067 948.6L128.8 974.333H83.7333C50.9333 974.333 38.6666 973.933 38.6666 972.867C38.6666 971.933 39.8666 964.067 41.3333 955.133C65.6 811.533 144.933 431.267 180.8 287C194 233.4 194.533 232.333 208.667 223C225.2 212.067 251.067 204.2 298 195.8C310 193.667 309.733 193.533 323.6 207.267ZM629.333 196.333C678.533 204.6 712.267 216.2 724.933 229.4C731.6 236.2 733.6 242.2 745.2 289.267C756.533 335 793.6 499.8 800 533C800.667 536.333 802.8 546.2 804.667 555C806.533 563.8 811.333 586.867 815.467 606.333C819.467 625.8 824.267 648.6 826 657C830.933 680.467 844.133 745.933 854 795.667C858.8 820.2 863.867 846.067 865.333 853C870.933 880.6 886.667 968.867 886.667 972.6C886.667 973.933 876.933 974.333 841.6 974.333H796.533L794.133 964.6C792.8 959.4 790.667 950.467 789.333 945C784.8 925.933 767.867 854.867 763.867 838.333C759.6 820.733 759.467 819.267 757.333 774.333C754.8 723.133 748.8 644.467 742 573.667C734.133 492.6 729.6 454.6 727.2 450.2C723.733 443.533 715.733 439.933 707.467 441.533C702.133 442.6 695.067 449.133 694 454.333C693.6 456.333 694.8 472.2 696.667 489.8C716.267 672.067 725.067 804.333 723.6 893C722.8 935.533 721.733 951.667 718.533 967.267L717.2 974.333H599.2H481.333V618.467V262.6L491.067 261C535.6 253.8 573.867 235.133 601.333 207.533C608.267 200.467 614.933 194.6 616 194.467C617.067 194.467 623.067 195.267 629.333 196.333ZM115.467 1027.27L111.2 1044.33L78.9333 1044.73L46.8 1045L43.4666 1034.07C41.6 1027.93 39.6 1020.2 39.2 1016.6L38.2666 1010.33H78.9333H119.733L115.467 1027.27ZM444 1027.67V1045H329.067H214L214.4 1027.67L214.8 1010.33H329.467H444V1027.67ZM710.667 1027.67V1045H596H481.333V1027.67V1010.33H596H710.667V1027.67ZM886.133 1016.6C885.733 1020.2 883.733 1027.93 881.867 1034.07L878.533 1045L846.4 1044.73L814.133 1044.33L809.867 1027.27L805.6 1010.33H846.4H887.067L886.133 1016.6Z" fill="white"/>
<path d="M524.4 443.533C514.8 449.533 513.067 464.067 521.2 472.067L525.333 476.333L585.333 476.733C651.733 477.133 650.8 477.267 656 468.6C660.8 460.867 658.533 449.933 650.933 444.333C647.467 441.8 644.933 441.667 588 441.267C530.933 441 528.533 441.133 524.4 443.533Z" fill="white"/>
</svg>
