<?xml version="1.0" standalone="no"?>
<!DOCTYPE svg PUBLIC "-//W3C//DTD SVG 20010904//EN"
 "http://www.w3.org/TR/2001/REC-SVG-20010904/DTD/svg10.dtd">
<svg version="1.0" xmlns="http://www.w3.org/2000/svg"
 width="491.000000pt" height="272.000000pt" viewBox="0 0 491.000000 272.000000"
 preserveAspectRatio="xMidYMid meet">

<g transform="translate(0.000000,272.000000) scale(0.100000,-0.100000)"
fill="#000000" stroke="none">
<path d="M0 1360 l0 -1360 2455 0 2455 0 0 1360 0 1360 -2455 0 -2455 0 0
-1360z m2797 798 c18 -10 43 -32 57 -49 l25 -29 -35 -78 c-43 -92 -217 -529
-250 -626 -13 -38 -24 -78 -24 -88 0 -20 12 -19 142 13 43 11 104 22 136 25
l59 7 12 -33 c6 -18 11 -53 11 -76 l0 -44 -77 0 c-73 0 -214 -12 -310 -26 -38
-6 -45 -3 -87 36 -25 23 -48 50 -51 61 -4 11 12 60 39 121 106 245 188 477
236 669 17 68 33 130 35 137 6 16 35 9 82 -20z m-1312 -13 c112 -37 125 -47
125 -96 0 -47 -25 -105 -50 -119 -14 -8 -26 -2 -56 25 -91 84 -305 118 -423
69 -134 -56 -82 -126 195 -263 93 -46 186 -97 207 -113 59 -47 81 -99 81 -188
-1 -125 -55 -215 -162 -267 -52 -25 -67 -28 -162 -27 -87 0 -119 5 -185 28
-93 32 -152 64 -207 114 -72 65 -84 118 -47 197 32 68 43 72 64 25 62 -138
315 -247 488 -210 95 19 175 107 149 164 -13 29 -95 82 -192 125 -316 141
-392 216 -361 355 22 98 97 171 210 203 73 21 229 10 326 -22z m711 10 c55
-27 124 -81 124 -96 0 -6 -17 -8 -44 -4 -200 30 -429 -242 -477 -565 -26 -182
28 -289 138 -276 110 14 257 139 330 281 79 155 121 343 110 497 -3 43 -2 78
3 78 15 0 61 -43 78 -73 23 -43 22 -207 -1 -297 -66 -248 -257 -466 -466 -530
-150 -47 -263 -10 -324 105 -29 56 -35 212 -13 325 55 268 214 512 371 568 53
19 117 14 171 -13z m1362 10 c191 -45 311 -180 320 -362 15 -280 -183 -560
-443 -628 -157 -40 -308 1 -380 105 l-26 38 36 88 c38 91 183 474 226 596 13
37 20 70 17 74 -4 3 -28 -9 -54 -27 -52 -38 -115 -123 -135 -181 -15 -46 -31
-48 -70 -9 -69 70 -7 196 132 266 106 54 251 70 377 40z m512 -366 c25 -11 57
-32 72 -46 25 -24 26 -28 13 -53 -20 -39 -94 -100 -121 -100 -13 0 -35 11 -50
23 -27 24 -27 24 -15 87 16 81 27 110 43 110 7 0 33 -10 58 -21z m-133 -394
c50 -21 103 -63 103 -81 0 -21 -89 -113 -115 -120 -13 -3 -37 2 -55 11 -32 17
-33 18 -27 73 8 80 25 132 43 132 8 0 31 -7 51 -15z m-172 -405 c206 -12 230
-18 230 -51 0 -22 -4 -24 -50 -24 -27 0 -151 7 -275 15 -156 10 -389 15 -760
14 -729 -1 -1372 -26 -1899 -74 -273 -25 -261 -26 -261 4 0 31 -1 31 285 56
367 32 862 57 1450 74 214 6 1112 -3 1280 -14z m-3307 -367 c-2 -12 -15 -20
-38 -23 -22 -3 -35 -10 -35 -20 0 -9 7 -14 18 -12 10 2 29 -4 43 -13 19 -12
24 -24 24 -55 0 -49 -30 -73 -87 -68 -53 4 -52 31 2 38 32 4 41 9 43 28 3 18
-1 23 -15 22 -46 -5 -73 17 -73 60 0 37 32 60 83 60 31 0 38 -3 35 -17z m314
-65 l3 -83 40 -5 c27 -3 40 -10 40 -20 0 -11 -15 -16 -62 -18 l-63 -3 0 106
c0 98 1 105 20 105 17 0 19 -8 22 -82z m520 53 c28 -25 33 -36 33 -76 0 -40
-5 -51 -33 -76 -47 -43 -102 -41 -148 5 -26 26 -34 42 -34 71 0 29 8 45 34 71
46 46 101 48 148 5z m423 9 c0 -8 -14 -17 -35 -21 -38 -8 -60 -32 -60 -66 0
-26 32 -63 55 -63 22 0 18 17 -5 23 -11 3 -20 12 -20 21 0 12 10 16 40 16 l40
0 0 -50 0 -50 -36 0 c-69 0 -114 41 -114 105 0 62 47 107 105 102 19 -1 30 -8
30 -17z m401 -70 c29 -107 29 -120 4 -120 -13 0 -22 9 -26 25 -8 34 -51 35
-56 3 -2 -15 -11 -24 -25 -26 -27 -4 -28 6 -9 74 8 27 20 68 26 92 10 38 14
43 37 40 24 -3 28 -11 49 -88z m359 58 l20 -33 3 33 c3 26 7 32 28 32 24 0 24
0 24 -106 0 -103 0 -105 -22 -102 -17 2 -24 12 -29 39 -3 20 -15 48 -27 63
l-21 27 -3 -63 c-3 -57 -5 -63 -25 -66 -23 -3 -23 -2 -23 102 l0 106 28 0 c21
0 33 -8 47 -32z m667 -10 c3 -38 6 -43 28 -43 22 0 25 5 28 43 3 38 6 43 25
40 21 -3 22 -8 22 -103 0 -96 -1 -100 -22 -103 -21 -3 -23 1 -23 37 0 39 -2
41 -30 41 -28 0 -30 -2 -30 -40 0 -33 -3 -40 -20 -40 -19 0 -20 7 -20 105 0
97 1 105 19 105 16 0 20 -8 23 -42z m478 22 c0 -16 -7 -20 -34 -20 -38 0 -49
-10 -40 -34 4 -10 18 -16 36 -16 40 0 35 -33 -7 -40 -44 -8 -39 -34 8 -38 29
-3 37 -7 37 -23 0 -17 -7 -19 -60 -19 l-60 0 0 105 0 105 60 0 c53 0 60 -2 60
-20z m382 3 c24 -29 27 -48 11 -80 -13 -27 -13 -35 1 -67 14 -34 14 -37 -1
-43 -18 -7 -40 18 -50 55 -3 13 -13 22 -24 22 -15 0 -19 -7 -19 -40 0 -33 -3
-40 -20 -40 -19 0 -20 7 -20 105 l0 105 53 0 c39 0 58 -5 69 -17z m403 -3 c0
-10 -12 -16 -38 -18 -33 -3 -38 -6 -35 -25 2 -16 11 -23 31 -25 37 -4 33 -36
-6 -40 -19 -2 -27 -9 -27 -22 0 -14 9 -20 38 -22 25 -2 37 -8 37 -18 0 -12
-13 -15 -60 -15 l-60 0 -3 103 -3 103 63 -3 c48 -2 63 -7 63 -18z"/>
<path d="M3408 2113 c-40 -6 -35 -16 22 -43 28 -13 55 -29 61 -36 6 -8 -3 -34
-32 -85 -124 -217 -299 -643 -274 -667 14 -14 170 -5 220 12 74 27 178 100
226 159 50 62 103 169 124 252 18 71 20 182 3 237 -16 55 -78 121 -137 146
-49 22 -160 35 -213 25z"/>
<path d="M1171 584 c-24 -31 -25 -37 -10 -67 16 -29 28 -37 60 -37 34 0 59 29
59 67 0 61 -71 85 -109 37z"/>
<path d="M3922 588 c3 -25 25 -33 47 -19 21 14 5 41 -24 41 -22 0 -26 -4 -23
-22z"/>
</g>
</svg>
