<?xml version="1.0" standalone="no"?>
<!DOCTYPE svg PUBLIC "-//W3C//DTD SVG 20010904//EN"
 "http://www.w3.org/TR/2001/REC-SVG-20010904/DTD/svg10.dtd">
<svg version="1.0" xmlns="http://www.w3.org/2000/svg"
 width="1920.000000pt" height="1080.000000pt" viewBox="0 0 1920.000000 1080.000000"
 preserveAspectRatio="xMidYMid meet">

<g transform="translate(0.000000,1080.000000) scale(0.100000,-0.100000)"
fill="#000000" stroke="none">
<path d="M11729 8958 c-396 -316 -463 -369 -563 -450 l-95 -78 -120 0 -121 0
0 30 c0 18 -7 33 -17 38 -10 5 -109 8 -221 7 -174 -2 -206 -4 -220 -19 -15
-15 -15 -17 0 -32 13 -14 34 -16 102 -15 l86 2 0 -164 c0 -173 5 -193 47 -185
16 3 18 20 23 173 l5 170 63 3 62 3 1 -138 c0 -76 1 -262 2 -413 l2 -275 -192
-3 c-178 -2 -193 -4 -203 -22 -7 -14 -6 -23 6 -34 13 -14 48 -16 222 -16 114
0 212 4 219 8 6 4 13 21 15 37 3 27 7 30 42 33 27 2 44 -2 60 -16 31 -29 123
-77 185 -97 40 -13 74 -16 140 -12 106 6 164 24 259 79 75 44 480 333 657 468
55 42 137 103 183 134 55 39 82 64 82 77 0 52 -103 161 -170 179 -75 20 -149
-5 -348 -116 -73 -41 -137 -72 -141 -69 -5 2 -7 23 -6 45 2 39 13 52 221 262
120 122 227 230 237 240 15 16 39 18 265 18 214 0 260 3 325 19 96 25 122 39
174 92 59 59 110 171 97 211 -5 17 -38 18 -564 18 l-559 0 -242 -192z m1281
109 c0 -28 -62 -109 -105 -136 -67 -42 -140 -51 -424 -51 l-253 0 -264 -262
-263 -263 1 -93 c1 -74 5 -95 19 -108 17 -15 24 -13 106 32 217 118 357 184
390 184 45 0 86 -22 119 -66 32 -41 35 -36 -76 -118 -163 -120 -277 -203 -352
-256 -43 -30 -155 -111 -250 -179 -246 -178 -335 -213 -476 -190 -74 11 -126
35 -198 90 -44 34 -58 39 -102 39 l-52 0 0 335 0 335 133 0 134 0 99 82 c99
83 521 421 584 468 18 14 72 57 119 97 l86 72 513 0 c415 1 512 -1 512 -12z"/>
<path d="M12681 6946 c-63 -21 -131 -71 -172 -126 -38 -51 -30 -29 -370 -1035
-170 -502 -174 -521 -144 -620 20 -67 76 -144 132 -182 35 -24 204 -86 610
-223 309 -104 566 -190 569 -190 4 0 -2 10 -13 23 -36 38 -55 89 -61 154 l-5
63 -79 0 c-43 0 -114 7 -156 16 -87 17 -832 265 -832 276 0 10 582 1732 587
1738 8 8 731 -239 819 -280 248 -115 420 -304 484 -532 96 -340 -58 -822 -333
-1039 -42 -34 -46 -39 -25 -39 12 -1 105 -9 204 -18 l181 -18 199 585 c121
360 199 606 202 637 9 112 -52 239 -145 301 -35 24 -243 99 -758 274 -767 261
-793 267 -894 235z"/>
<path d="M7110 6849 c-108 -11 -246 -51 -324 -92 -36 -18 -93 -63 -137 -107
-99 -99 -130 -169 -137 -316 -7 -150 24 -243 115 -344 103 -115 249 -185 591
-284 228 -66 284 -89 317 -128 33 -39 40 -72 26 -118 -14 -48 -67 -93 -136
-117 -79 -28 -304 -25 -410 5 -99 29 -237 101 -302 157 l-49 43 -113 -155
-113 -154 23 -25 c68 -72 261 -166 430 -208 368 -93 752 -34 944 145 113 106
161 234 153 403 -8 157 -65 259 -195 352 -94 67 -204 113 -449 184 -319 93
-391 130 -415 209 -23 77 47 156 162 180 73 16 230 13 312 -5 78 -17 231 -86
286 -128 19 -14 38 -23 42 -19 3 5 54 75 113 157 122 169 122 146 -3 217 -206
119 -483 175 -731 148z"/>
<path d="M8927 6849 c-243 -26 -473 -149 -605 -325 -137 -183 -199 -400 -189
-664 19 -466 275 -788 698 -876 115 -24 316 -24 429 0 306 65 536 260 639 543
103 282 81 645 -55 892 -138 252 -372 397 -694 431 -106 11 -113 11 -223 -1z
m325 -402 c134 -66 225 -191 263 -361 26 -117 18 -324 -17 -424 -86 -242 -280
-365 -523 -331 -192 27 -335 165 -392 379 -24 90 -24 310 0 398 50 187 159
312 314 363 46 15 82 18 169 16 105 -2 114 -4 186 -40z"/>
<path d="M10330 5910 l0 -920 660 0 660 0 0 190 0 190 -450 0 -450 0 0 730 0
730 -210 0 -210 0 0 -920z"/>
<path d="M12856 5848 c-96 -288 -177 -529 -178 -537 -4 -21 335 -131 426 -138
136 -10 263 42 358 147 64 71 141 228 169 345 28 118 23 261 -10 348 -28 71
-120 174 -195 216 -42 25 -362 141 -386 141 -4 0 -87 -235 -184 -522z"/>
<path d="M11880 5456 c0 -2 8 -10 18 -17 15 -13 16 -12 3 4 -13 16 -21 21 -21
13z"/>
<path d="M13521 4871 l-64 -29 49 -6 c151 -18 508 -46 514 -39 4 4 10 20 14
35 7 31 12 29 -184 47 -246 23 -259 22 -329 -8z"/>
<path d="M14090 4842 c0 -9 -3 -26 -6 -38 -5 -20 1 -21 203 -38 114 -10 238
-24 274 -31 207 -42 347 -183 380 -385 7 -47 15 -60 51 -91 l41 -36 -228 -264
c-125 -145 -233 -270 -239 -276 -9 -10 -37 9 -121 82 -99 85 -114 95 -150 95
-22 0 -302 11 -623 25 l-584 24 -66 59 c-37 32 -220 190 -407 352 -187 161
-346 299 -354 306 -25 23 68 58 152 57 104 0 160 -34 402 -245 114 -98 215
-182 226 -186 10 -4 195 4 410 19 l391 26 38 44 38 44 -45 9 c-36 7 -46 5 -56
-9 -13 -16 -83 -23 -658 -60 l-95 -6 -128 113 c-230 204 -303 260 -394 299
-99 43 -224 32 -335 -30 -93 -52 -113 -29 393 -466 300 -260 460 -392 480
-396 16 -4 125 -10 242 -14 117 -4 387 -14 601 -24 l387 -16 94 -80 c52 -44
95 -85 95 -91 1 -6 -6 -17 -14 -24 -36 -30 -18 -53 156 -203 170 -146 208
-169 223 -131 9 23 -12 51 -77 104 -31 25 -56 51 -57 58 0 7 50 70 110 140 61
69 110 134 110 143 0 26 -25 42 -47 31 -18 -10 -215 -234 -221 -253 -7 -18
-27 -8 -76 36 -46 41 -49 46 -34 62 8 10 133 155 278 323 325 377 298 349 313
330 16 -20 252 -226 281 -246 30 -19 56 -9 56 22 0 18 -40 58 -170 171 -94 81
-177 149 -185 151 -7 2 -23 -6 -34 -17 -26 -26 -29 -26 -64 3 -22 17 -31 38
-42 90 -31 148 -143 289 -280 352 -100 46 -168 60 -390 79 -104 8 -202 18
-217 20 -22 3 -28 0 -28 -13z"/>
<path d="M13313 4813 c-32 -6 -38 -41 -19 -105 25 -83 78 -131 186 -166 65
-21 432 -104 436 -99 1 1 5 16 9 34 8 38 17 34 -220 84 -281 59 -345 98 -345
214 0 46 -1 47 -47 38z"/>
<path d="M13410 4775 c0 -35 32 -77 73 -94 48 -20 168 -52 307 -81 52 -11 104
-22 116 -26 15 -4 28 3 46 25 32 38 64 119 52 130 -5 5 -128 18 -274 30 -146
12 -277 24 -292 27 -21 4 -28 2 -28 -11z"/>
</g>
</svg>
